<svg width="55" height="53" viewBox="0 0 55 53" fill="none" xmlns="http://www.w3.org/2000/svg">
<path d="M4.06998 52.45C17.0325 49.0664 30.6495 49.0905 43.6 52.52C44.0872 49.814 44.3282 47.0695 44.32 44.32C44.32 34.44 41.03 27.57 32.91 27.57C29.48 27.57 27.91 28.83 26.14 30.02C24.59 31.08 22.3 30.95 21.37 30.02C21.37 30.02 19.16 27.56 14.53 27.56C6.40998 27.56 3.11998 34.43 3.11998 44.31C3.11124 47.0562 3.35223 49.7975 3.83998 52.5L4.06998 52.45Z" fill="#FF8080"/>
<path d="M37.07 33.36C36.3137 32.0188 35.1362 30.9644 33.72 30.36C32.7298 29.9582 31.6685 29.7609 30.6 29.78" stroke="#000670" stroke-width="1.42" stroke-linecap="round" stroke-linejoin="round"/>
<path d="M39 47.84C39.12 46.53 39.19 45.15 39.19 43.69C39.2194 41.5612 39.0182 39.4355 38.59 37.35" stroke="#000670" stroke-width="1.42" stroke-linecap="round" stroke-linejoin="round"/>
<path d="M16.1999 32C24.0599 32 23.5999 26.94 30.5999 26.94C38.7299 26.94 42 33.82 42 43.69C42.0053 46.0937 41.8247 48.4942 41.4599 50.87C28.323 47.3133 14.4868 47.234 1.30995 50.64C0.967613 48.3226 0.800473 45.9826 0.809952 43.64C0.809952 33.77 4.08995 26.89 12.2099 26.89C16.8399 26.89 19.0599 29.35 19.0599 29.35" stroke="#000670" stroke-width="1.42" stroke-linecap="round" stroke-linejoin="round"/>
<path d="M13.06 32.12H12.35" stroke="#000670" stroke-width="1.42" stroke-linecap="round" stroke-linejoin="round"/>
<path d="M50.93 0.549995C44.5191 2.24908 37.9122 3.09637 31.28 3.07C24.5676 3.09613 17.8817 2.22509 11.4 0.479996C10.9128 3.18596 10.6718 5.93052 10.68 8.68C10.68 18.56 13.97 25.43 22.09 25.43C25.52 25.43 27.09 24.17 28.86 22.98C30.41 21.92 32.7 22.05 33.63 22.98C33.63 22.98 35.84 25.44 40.47 25.44C48.59 25.44 51.88 18.57 51.88 8.68999C51.8888 5.94381 51.6478 3.20253 51.16 0.499996L50.93 0.549995Z" fill="#A6ACDD"/>
<path d="M17.9301 19.64C18.6864 20.9812 19.8638 22.0357 21.2801 22.64C22.2703 23.0419 23.3316 23.2392 24.4001 23.22" stroke="#000670" stroke-width="1.42" stroke-linecap="round" stroke-linejoin="round"/>
<path d="M16 5.16C15.88 6.47 15.8099 7.85001 15.8099 9.31001C15.7805 11.4388 15.9817 13.5645 16.41 15.65" stroke="#000670" stroke-width="1.42" stroke-linecap="round" stroke-linejoin="round"/>
<path d="M38.8 21C30.94 21 31.4 26.06 24.4 26.06C16.27 26.06 13 19.18 13 9.31001C12.9947 6.90633 13.1752 4.50584 13.54 2.13C26.677 5.68677 40.5131 5.76603 53.69 2.36C54.0323 4.67746 54.1995 7.01742 54.19 9.36C54.19 19.23 50.91 26.11 42.79 26.11C38.16 26.11 35.94 23.65 35.94 23.65" stroke="#000670" stroke-width="1.42" stroke-linecap="round" stroke-linejoin="round"/>
<path d="M41.9399 20.88H42.6499" stroke="#000670" stroke-width="1.42" stroke-linecap="round" stroke-linejoin="round"/>
</svg>
