<svg width="74" height="65" viewBox="0 0 74 65" fill="none" xmlns="http://www.w3.org/2000/svg">
<path d="M26.3319 21.3603C28.0719 20.1803 29.6719 18.9103 33.1019 18.9103C41.2219 18.9103 44.5119 25.7903 44.5119 35.6603C44.5119 45.5303 41.6819 52.0803 38.8019 57.6603C35.9219 63.2403 32.8819 64.1703 31.7419 64.1703C31.0534 64.1502 30.3986 63.8677 29.9116 63.3807C29.4245 62.8936 29.142 62.2388 29.1219 61.5503C29.1219 59.9403 30.4619 46.0803 23.9119 46.0803C17.3619 46.0803 18.7019 59.9803 18.7019 61.5903C18.6719 62.2718 18.385 62.9167 17.899 63.3953C17.4129 63.8739 16.7637 64.1508 16.0819 64.1703C14.9319 64.1703 11.8919 63.1103 9.02189 57.5803C6.15189 52.0503 3.31189 45.5003 3.31189 35.5803C3.31189 25.6603 6.60189 18.9103 14.7219 18.9103C19.3519 18.9103 21.5619 21.3703 21.5619 21.3703C22.4819 22.2903 24.7719 22.4203 26.3319 21.3603Z" fill="#A6ACDD"/>
<path d="M37.2619 24.7003C36.4969 23.3661 35.3221 22.314 33.9119 21.7003C32.9163 21.3223 31.8565 21.1422 30.7919 21.1703" stroke="#000670" stroke-width="1.42" stroke-linecap="round" stroke-linejoin="round"/>
<path d="M36.5219 50.2403C38.4519 45.4077 39.4167 40.2438 39.3619 35.0403C39.3912 32.9082 39.1901 30.7792 38.7619 28.6903" stroke="#000670" stroke-width="1.42" stroke-linecap="round" stroke-linejoin="round"/>
<path d="M4.42185 52.1703C2.11139 46.7577 0.94694 40.9252 1.00186 35.0403C1.00186 25.1603 4.29185 18.2903 12.4119 18.2903C17.0419 18.2903 19.2519 20.7503 19.2519 20.7503" stroke="#000670" stroke-width="1.42" stroke-linecap="round" stroke-linejoin="round"/>
<path d="M6.31179 56.2203C6.07179 55.7403 5.8318 55.2203 5.5918 54.7603" stroke="#000670" stroke-width="1.42" stroke-linecap="round" stroke-linejoin="round"/>
<path d="M16.3918 23.3503C24.2518 23.3503 23.7918 18.2903 30.7918 18.2903C38.9118 18.2903 42.2018 25.1603 42.2018 35.0403C42.2327 42.7282 40.2651 50.2921 36.4918 56.9903C33.6118 62.5303 30.5818 63.5903 29.4318 63.5903C28.7441 63.5678 28.0907 63.2846 27.6041 62.798C27.1176 62.3115 26.8343 61.6581 26.8118 60.9703C26.8118 59.3503 28.1518 45.5003 21.6018 45.5003C15.0518 45.5003 16.3918 59.3503 16.3918 60.9703C16.3693 61.6581 16.0861 62.3115 15.5995 62.798C15.113 63.2846 14.4596 63.5678 13.7718 63.5903C12.7718 63.5903 10.2118 62.7403 7.62183 58.5903" stroke="#000670" stroke-width="1.42" stroke-linecap="round" stroke-linejoin="round"/>
<path d="M13.2419 23.4603H12.5319" stroke="#000670" stroke-width="1.42" stroke-linecap="round" stroke-linejoin="round"/>
<path d="M33.8918 33.4103C32.0702 33.2161 30.3851 32.3539 29.1618 30.9903C26.8618 28.6903 26.0818 25.8903 27.3618 24.6003C27.5842 24.3893 27.8464 24.2249 28.1332 24.1167C28.42 24.0085 28.7255 23.9588 29.0318 23.9703C30.8521 24.1692 32.5356 25.0305 33.7618 26.3903C36.0518 28.6903 36.8418 31.5003 35.5518 32.7903C35.3312 33.0002 35.0704 33.1633 34.7851 33.2698C34.4999 33.3764 34.196 33.4241 33.8918 33.4103Z" fill="#FF8080"/>
<path d="M29.0319 24.4703C30.7201 24.6645 32.2768 25.4767 33.4019 26.7503C35.4719 28.8103 36.2819 31.3603 35.2019 32.4303C35.0274 32.5949 34.8213 32.7223 34.5962 32.8048C34.371 32.8874 34.1314 32.9232 33.8919 32.9103C32.2048 32.7102 30.648 31.9034 29.5119 30.6403C27.4519 28.5703 26.6419 26.0203 27.7219 24.9503C27.8976 24.7876 28.1039 24.6614 28.3288 24.579C28.5536 24.4966 28.7926 24.4597 29.0319 24.4703ZM29.0319 23.4703C28.6641 23.46 28.298 23.5227 27.9547 23.6549C27.6114 23.787 27.2977 23.986 27.0319 24.2403C25.5219 25.7503 26.2919 28.8103 28.8319 31.3403C30.1391 32.8088 31.9544 33.7272 33.9119 33.9103C34.2796 33.9207 34.6457 33.858 34.9891 33.7258C35.3324 33.5936 35.646 33.3946 35.9119 33.1403C37.4219 31.6303 36.6519 28.5803 34.1119 26.0403C32.8034 24.5734 30.9888 23.6554 29.0319 23.4703Z" fill="white"/>
<path d="M30.8519 25.6903C31.2822 25.9896 31.687 26.3241 32.0619 26.6903C34.1319 28.7603 34.9319 31.3103 33.8619 32.3803C32.7919 33.4503 30.2419 32.6503 28.1719 30.5803C26.1019 28.5103 25.3019 25.9703 26.3719 24.9003C26.5979 24.6808 26.8827 24.5314 27.1919 24.4703" stroke="#000670" stroke-width="1.42" stroke-linecap="round" stroke-linejoin="round"/>
<path d="M28.752 24.6203C28.9115 24.6647 29.0685 24.7181 29.222 24.7803" stroke="#000670" stroke-width="1.42" stroke-linecap="round" stroke-linejoin="round"/>
<path d="M43.2519 13.3703L38.2019 17.0903L41.9319 12.0403L43.2519 13.3703Z" fill="white" stroke="#000670" stroke-width="1.42" stroke-linecap="round" stroke-linejoin="round"/>
<path d="M72.8527 30.9361L51.4628 9.54616L48.4576 12.5514L69.8475 33.9413L72.8527 30.9361Z" fill="white" stroke="#000670" stroke-width="1.42" stroke-linecap="round" stroke-linejoin="round"/>
<path d="M52.2242 6.65276L48.6321 3.06066C48.0463 2.47487 47.0965 2.47487 46.5108 3.06066L40.7973 8.77408C40.2115 9.35987 40.2115 10.3096 40.7973 10.8954L44.3894 14.4875C44.9752 15.0733 45.925 15.0733 46.5108 14.4875L52.2242 8.77408C52.81 8.1883 52.81 7.23855 52.2242 6.65276Z" fill="white" stroke="#000670" stroke-width="1.42" stroke-linecap="round" stroke-linejoin="round"/>
</svg>
