<svg width="45" height="61" viewBox="0 0 45 61" fill="none" xmlns="http://www.w3.org/2000/svg">
<path d="M23.9102 28.3821C30.0995 28.4306 36.258 27.506 42.1602 25.6421C42.732 25.4591 43.2376 25.1124 43.6144 24.6449C43.9912 24.1775 44.2227 23.6098 44.2802 23.0121C44.4333 21.4736 44.5068 19.9282 44.5002 18.3821C44.5002 8.50212 41.2202 1.63212 33.1002 1.63212C29.6702 1.63212 28.1002 2.89212 26.3202 4.08212C24.7702 5.14212 22.4802 5.01212 21.5602 4.08212C20.6395 3.23994 19.5609 2.58885 18.3867 2.16658C17.2126 1.7443 15.9664 1.55924 14.7202 1.62212C6.59018 1.62212 3.31018 8.49211 3.31018 18.3721C3.31018 19.9921 3.39018 21.5321 3.53018 22.9821C3.59137 23.5786 3.8242 24.1445 4.20048 24.6112C4.57676 25.078 5.08033 25.4257 5.65018 25.6121C11.5542 27.486 17.716 28.4208 23.9102 28.3821Z" fill="#A6ACDD"/>
<path d="M37.2602 7.38211C36.5038 6.04088 35.3264 4.98645 33.9102 4.38211C32.9193 3.98237 31.8585 3.78516 30.7902 3.80211" stroke="#000670" stroke-width="1.42" stroke-linecap="round" stroke-linejoin="round"/>
<path d="M39.2601 20.8921C39.3201 19.8921 39.3601 18.8421 39.3601 17.7621C39.3901 15.63 39.1889 13.5009 38.7601 11.4121" stroke="#000670" stroke-width="1.42" stroke-linecap="round" stroke-linejoin="round"/>
<path d="M1.32017 23.2821C1.10192 21.4503 0.995061 19.6069 1.00018 17.7621C1.00018 7.88211 4.28017 1.01211 12.4102 1.01211C13.6555 0.949003 14.9011 1.13299 16.075 1.55348C17.249 1.97397 18.3281 2.62265 19.2502 3.46211" stroke="#000670" stroke-width="1.42" stroke-linecap="round" stroke-linejoin="round"/>
<path d="M16.3901 6.0621C24.2401 6.0621 23.7801 1.0621 30.7901 1.0621C38.9101 1.0621 42.2001 7.9321 42.2001 17.8121C42.2003 19.6567 42.0934 21.4998 41.8801 23.3321" stroke="#000670" stroke-width="1.42" stroke-linecap="round" stroke-linejoin="round"/>
<path d="M13.2402 6.18211H12.5302" stroke="#000670" stroke-width="1.42" stroke-linecap="round" stroke-linejoin="round"/>
<path d="M41.8802 23.2821C35.384 25.6484 28.5135 26.8206 21.6002 26.7421C14.6836 26.8207 7.80979 25.6485 1.31018 23.2821" stroke="#000670" stroke-width="1.42" stroke-linecap="round" stroke-linejoin="round"/>
<path d="M23.9102 27.7521C21.1161 27.7232 18.3255 27.5462 15.5502 27.2221V51.7521L20.4002 60.7521H27.4002L32.2502 51.7521V27.2221C29.4815 27.5456 26.6976 27.7226 23.9102 27.7521Z" fill="#FF8080"/>
<path d="M21.6002 26.7521C18.8062 26.7232 16.0156 26.5462 13.2402 26.2221V50.7521L18.1002 59.7521H25.1002L29.9502 50.7521V26.2221C27.1782 26.546 24.391 26.7229 21.6002 26.7521V26.7521Z" stroke="#000670" stroke-width="1.42" stroke-linecap="round" stroke-linejoin="round"/>
<path d="M31.0402 29.2421L12.1602 35.1921" stroke="#000670" stroke-width="1.42" stroke-linecap="round" stroke-linejoin="round"/>
<path d="M31.0402 32.2121L12.1602 38.1621" stroke="#000670" stroke-width="1.42" stroke-linecap="round" stroke-linejoin="round"/>
<path d="M31.0402 35.1921L12.1602 41.1321" stroke="#000670" stroke-width="1.42" stroke-linecap="round" stroke-linejoin="round"/>
<path d="M31.0402 38.1621L12.1602 44.1121" stroke="#000670" stroke-width="1.42" stroke-linecap="round" stroke-linejoin="round"/>
<path d="M31.0402 41.1321L12.1602 47.0821" stroke="#000670" stroke-width="1.42" stroke-linecap="round" stroke-linejoin="round"/>
<path d="M31.0402 44.1121L12.1602 50.0521" stroke="#000670" stroke-width="1.42" stroke-linecap="round" stroke-linejoin="round"/>
</svg>
