<svg width="45" height="51" viewBox="0 0 45 51" fill="none" xmlns="http://www.w3.org/2000/svg">
<path d="M24.2102 27.0521C17.3554 27.0231 10.5288 27.9315 3.92017 29.7521C4.8211 34.7737 6.53708 39.6142 9.00017 44.0821C11.8802 49.6121 14.9202 50.6821 16.0602 50.6821C16.7496 50.6595 17.4044 50.3748 17.8912 49.8862C18.378 49.3975 18.6602 48.7416 18.6802 48.0521C18.6802 46.4421 17.3402 32.5921 23.8902 32.5921C30.4402 32.5921 29.1002 46.4421 29.1002 48.0521C29.1203 48.7432 29.4038 49.4006 29.8928 49.8895C30.3817 50.3784 31.039 50.662 31.7302 50.6821C32.8702 50.6821 35.9102 49.6121 38.7902 44.0821C41.2778 39.5655 43.0043 34.67 43.9002 29.5921C37.4776 27.8807 30.8568 27.0266 24.2102 27.0521Z" fill="#A6ACDD"/>
<path d="M4.10021 26.5921C17.0627 23.2085 30.6797 23.2326 43.6302 26.6621C44.1175 23.9561 44.3585 21.2116 44.3502 18.4621C44.3502 8.58211 41.0702 1.71211 32.9402 1.71211C29.5102 1.71211 27.9402 2.9721 26.1702 4.1621C24.6202 5.2221 22.3302 5.0921 21.4102 4.1621C20.4881 3.32264 19.409 2.67397 18.2351 2.25348C17.0611 1.83299 15.8156 1.649 14.5702 1.71211C6.44021 1.71211 3.16021 8.58211 3.16021 18.4621C3.14844 21.208 3.38608 23.9492 3.87021 26.6521L4.10021 26.5921Z" fill="#FF8080"/>
<path d="M37.1002 7.50211C36.3414 6.15922 35.1602 5.1046 33.7402 4.50211C32.75 4.10026 31.6887 3.90297 30.6202 3.92211" stroke="#000670" stroke-width="1.42" stroke-linecap="round" stroke-linejoin="round"/>
<path d="M39.0202 21.9821C39.1402 20.6721 39.2102 19.2921 39.2102 17.8321C39.2402 15.7033 39.039 13.5775 38.6102 11.4921" stroke="#000670" stroke-width="1.42" stroke-linecap="round" stroke-linejoin="round"/>
<path d="M16.2402 6.14211C24.0902 6.14211 23.6302 1.08211 30.6302 1.08211C38.7602 1.08211 42.0402 7.96211 42.0402 17.8321C42.0505 20.236 41.87 22.6368 41.5002 25.0121C28.3634 21.4571 14.5286 21.3744 1.35021 24.7721C1.00997 22.4746 0.842834 20.1547 0.850209 17.8321C0.850209 7.96211 4.13021 1.08211 12.2602 1.08211C13.5064 1.01923 14.7526 1.2043 15.9268 1.62657C17.1009 2.04884 18.1795 2.69993 19.1002 3.54211" stroke="#000670" stroke-width="1.42" stroke-linecap="round" stroke-linejoin="round"/>
<path d="M13.0902 6.26212H12.3802" stroke="#000670" stroke-width="1.42" stroke-linecap="round" stroke-linejoin="round"/>
<path d="M4.41024 38.6621C3.00965 35.3923 2.02852 31.9583 1.49023 28.4421C16.9802 24.6721 29.1002 25.3821 41.6402 28.6821C40.7668 33.8615 39.0221 38.8555 36.4802 43.4521C33.6002 48.9921 30.5602 50.0521 29.4202 50.0521C28.7308 50.0321 28.0748 49.75 27.5862 49.2631C27.0975 48.7763 26.8129 48.1215 26.7902 47.4321C26.7902 45.8121 28.1402 31.9621 21.5802 31.9621C15.0202 31.9621 16.3802 45.8121 16.3802 47.4321C16.3576 48.1215 16.073 48.7763 15.5843 49.2631C15.0956 49.75 14.4397 50.0321 13.7502 50.0521C12.7502 50.0521 10.1902 49.2021 7.60023 45.0521" stroke="#000670" stroke-width="1.42" stroke-linecap="round" stroke-linejoin="round"/>
<path d="M6.30019 42.6821C6.05019 42.2121 5.81019 41.6821 5.57019 41.2321" stroke="#000670" stroke-width="1.42" stroke-linecap="round" stroke-linejoin="round"/>
</svg>
