<svg width="30" height="38" viewBox="0 0 30 38" fill="none" xmlns="http://www.w3.org/2000/svg">
<path d="M22.9167 13.9333H7.08332C6.73372 13.9333 6.44998 14.2164 6.44998 14.5667C6.44998 14.9169 6.73372 15.2 7.08332 15.2H22.9167C23.2663 15.2 23.55 14.9169 23.55 14.5667C23.55 14.2164 23.2663 13.9333 22.9167 13.9333Z" fill="black"/>
<path d="M7.08331 10.1333H13.4166C13.7662 10.1333 14.05 9.85021 14.05 9.49997C14.05 9.14974 13.7662 8.86664 13.4166 8.86664H7.08331C6.73371 8.86664 6.44998 9.14974 6.44998 9.49997C6.44998 9.85021 6.73371 10.1333 7.08331 10.1333Z" fill="black"/>
<path d="M22.9167 19H7.08332C6.73372 19 6.44998 19.2831 6.44998 19.6333C6.44998 19.9836 6.73372 20.2667 7.08332 20.2667H22.9167C23.2663 20.2667 23.55 19.9836 23.55 19.6333C23.55 19.2831 23.2663 19 22.9167 19Z" fill="black"/>
<path d="M22.9167 24.0667H7.08332C6.73372 24.0667 6.44998 24.3498 6.44998 24.7C6.44998 25.0502 6.73372 25.3333 7.08332 25.3333H22.9167C23.2663 25.3333 23.55 25.0502 23.55 24.7C23.55 24.3498 23.2663 24.0667 22.9167 24.0667Z" fill="black"/>
<path d="M22.9167 29.1333H7.08332C6.73372 29.1333 6.44998 29.4164 6.44998 29.7666C6.44998 30.1169 6.73372 30.4 7.08332 30.4H22.9167C23.2663 30.4 23.55 30.1169 23.55 29.7666C23.55 29.4164 23.2663 29.1333 22.9167 29.1333Z" fill="black"/>
<path d="M20.6455 0H0V38H30V9L20.6455 0ZM21 3L27 9H21V3ZM1.99998 36V2H19V11H28V36H1.99998Z" fill="black"/>
</svg>
