<svg width="33" height="39" viewBox="0 0 33 39" fill="none" xmlns="http://www.w3.org/2000/svg">
<path d="M16.2027 21.7617C19.3513 21.7617 21.9037 19.3365 21.9037 16.3449C21.9037 13.3534 19.3513 10.9282 16.2027 10.9282C13.0541 10.9282 10.5017 13.3534 10.5017 16.3449C10.5017 19.3365 13.0541 21.7617 16.2027 21.7617Z" stroke="#A6ACDE" stroke-width="2" stroke-linecap="square"/>
<path d="M16.2027 37.4702C26.2745 28.984 31.4055 21.7617 31.4055 16.3449C31.4055 12.514 29.8037 8.83994 26.9527 6.13106C24.1016 3.42217 20.2347 1.90033 16.2027 1.90033C12.1707 1.90033 8.30384 3.42217 5.45278 6.13106C2.60171 8.83994 1 12.514 1 16.3449C1 21.7617 6.13092 28.8034 16.2027 37.4702Z" stroke="#A6ACDE" stroke-width="2" stroke-linecap="square"/>
</svg>
