<svg width="33" height="39" viewBox="0 0 33 39" fill="none" xmlns="http://www.w3.org/2000/svg">
<path d="M16.2027 21.7616C19.3513 21.7616 21.9037 19.3365 21.9037 16.3449C21.9037 13.3533 19.3513 10.9282 16.2027 10.9282C13.0541 10.9282 10.5017 13.3533 10.5017 16.3449C10.5017 19.3365 13.0541 21.7616 16.2027 21.7616Z" stroke="black" stroke-width="2" stroke-linecap="square"/>
<path d="M16.2027 37.4701C26.2745 28.9839 31.4055 21.7616 31.4055 16.3449C31.4055 12.5139 29.8037 8.83988 26.9527 6.13099C24.1016 3.42211 20.2347 1.90027 16.2027 1.90027C12.1707 1.90027 8.30384 3.42211 5.45278 6.13099C2.60171 8.83988 1 12.5139 1 16.3449C1 21.7616 6.13092 28.8033 16.2027 37.4701Z" stroke="black" stroke-width="2" stroke-linecap="square"/>
</svg>
