<svg width="54" height="54" viewBox="0 0 54 54" fill="none" xmlns="http://www.w3.org/2000/svg">
<path d="M26.82 4.21C28.56 3.02 30.16 1.75999 33.59 1.75999C41.72 1.75999 45 8.64 45 18.51C45.0353 26.1971 43.0711 33.7613 39.3 40.46C36.42 46 33.38 47.06 32.24 47.06C31.5506 47.04 30.8946 46.7579 30.406 46.271C29.9173 45.7842 29.6327 45.1294 29.61 44.44C29.61 42.82 31 29 24.4 29C17.8 29 19.2 42.85 19.2 44.47C19.1774 45.1594 18.8928 45.8142 18.4041 46.301C17.9154 46.7878 17.2595 47.07 16.57 47.09C15.43 47.09 12.39 46.03 9.51003 40.49C5.73901 33.7913 3.77474 26.2271 3.81004 18.54C3.81004 8.67 7.09004 1.79 15.22 1.79C16.4662 1.72712 17.7125 1.91218 18.8866 2.33446C20.0607 2.75673 21.1394 3.40782 22.06 4.25C23 5.14 25.27 5.27 26.82 4.21Z" fill="#A6ACDD"/>
<path d="M37.76 7.54999C36.9965 6.21088 35.8168 5.15755 34.4 4.54999C33.4077 4.1584 32.3465 3.97132 31.28 3.99999" stroke="#000670" stroke-width="1.42" stroke-linecap="round" stroke-linejoin="round"/>
<path d="M37 33.08C38.9302 28.2509 39.8951 23.0903 39.84 17.89C39.8699 15.7579 39.6688 13.6288 39.24 11.54" stroke="#000670" stroke-width="1.42" stroke-linecap="round" stroke-linejoin="round"/>
<path d="M16.89 6.19C24.74 6.19 24.28 1.19 31.28 1.19C39.41 1.19 42.69 8.06001 42.69 17.94C42.7312 25.6437 40.7668 33.2255 36.99 39.94C34.11 45.47 31.07 46.54 29.93 46.54C29.2388 46.5199 28.5815 46.2363 28.0926 45.7474C27.6037 45.2585 27.3201 44.6012 27.3 43.91C27.3 42.3 28.65 28.45 22.1 28.45C15.55 28.45 16.89 42.2 16.89 43.81C16.8699 44.5012 16.5863 45.1585 16.0974 45.6474C15.6085 46.1363 14.9512 46.4199 14.26 46.44C13.26 46.44 10.7 45.58 8.12 41.44" stroke="#000670" stroke-width="1.42" stroke-linecap="round" stroke-linejoin="round"/>
<path d="M4.92003 35.05C2.60271 29.629 1.43805 23.7852 1.50003 17.89C1.50003 8.00999 4.78003 1.13999 12.91 1.13999C14.1554 1.07689 15.401 1.26088 16.5749 1.68137C17.7488 2.10186 18.8279 2.75053 19.75 3.58999" stroke="#000670" stroke-width="1.42" stroke-linecap="round" stroke-linejoin="round"/>
<path d="M6.80996 39.07C6.55996 38.59 6.31996 38.07 6.07996 37.61" stroke="#000670" stroke-width="1.42" stroke-linecap="round" stroke-linejoin="round"/>
<path d="M13.74 6.31H13.03" stroke="#000670" stroke-width="1.42" stroke-linecap="round" stroke-linejoin="round"/>
<path d="M42.69 34.79C45.722 34.79 48.18 32.332 48.18 29.3C48.18 26.268 45.722 23.81 42.69 23.81C39.6579 23.81 37.2 26.268 37.2 29.3C37.2 32.332 39.6579 34.79 42.69 34.79Z" fill="white"/>
<path d="M31.62 49.31C33.9064 49.31 35.76 47.4565 35.76 45.17C35.76 42.8835 33.9064 41.03 31.62 41.03C29.3335 41.03 27.48 42.8835 27.48 45.17C27.48 47.4565 29.3335 49.31 31.62 49.31Z" fill="white"/>
<path d="M32.1799 32.51L33.5799 35.41L36.1699 34.16C36.7254 34.8621 37.4029 35.4583 38.1699 35.92L37.2199 38.63L40.2199 39.69L41.2199 36.98C42.0986 37.0843 42.9888 37.0335 43.8499 36.83L44.9999 39.42L47.8999 38.02L46.6999 35.43C47.3963 34.8714 47.9888 34.1944 48.4499 33.43L51.1599 34.37L52.2199 31.37L49.5099 30.43C49.6198 29.5515 49.569 28.6603 49.3599 27.8L51.9999 26.55L50.5999 23.65L47.9999 24.9C47.447 24.1983 46.7689 23.6049 45.9999 23.15L46.9999 20.44L43.9999 19.38L42.9999 22.09C42.1214 21.9808 41.2304 22.0316 40.3699 22.24L39.1299 19.65L36.2299 21.05L37.4699 23.63C36.7765 24.1917 36.1846 24.8681 35.7199 25.63L32.9999 24.65L31.9399 27.65L34.6499 28.65C34.5404 29.5252 34.5912 30.413 34.7999 31.27L32.1799 32.51ZM40.2399 25.76C40.9862 25.3989 41.8228 25.2674 42.6439 25.3819C43.4649 25.4965 44.2335 25.852 44.8525 26.4036C45.4714 26.9551 45.9128 27.6779 46.1208 28.4804C46.3288 29.2829 46.2941 30.129 46.021 30.9118C45.748 31.6945 45.2489 32.3787 44.5868 32.8777C43.9248 33.3767 43.1297 33.6681 42.302 33.715C41.4743 33.7619 40.6513 33.5623 39.9371 33.1413C39.2229 32.7203 38.6497 32.0969 38.2899 31.35C38.0501 30.8551 37.9103 30.3177 37.8785 29.7686C37.8467 29.2195 37.9236 28.6696 38.1047 28.1503C38.2859 27.631 38.5677 27.1525 38.9341 26.7424C39.3005 26.3322 39.7443 25.9984 40.2399 25.76Z" fill="#FF8080"/>
<path d="M23.58 47.6L24.65 49.81L26.65 48.81C27.0663 49.3423 27.5743 49.7961 28.15 50.15L27.42 52.22L29.75 53.03L30.47 50.96C31.138 51.038 31.8145 51.0008 32.47 50.85L33.47 52.85L35.69 51.78L34.74 49.78C35.2669 49.3608 35.7169 48.8533 36.07 48.28L38.15 49L38.96 46.68L36.83 46C36.911 45.3316 36.8703 44.654 36.71 44L38.71 43L37.64 40.79L35.64 41.79C35.2237 41.2577 34.7157 40.8039 34.14 40.45L34.87 38.38L32.54 37.57L31.82 39.64C31.1519 39.562 30.4755 39.5992 29.82 39.75L28.82 37.75L26.6 38.82L27.6 40.82C27.0674 41.236 26.6135 41.744 26.26 42.32L24.19 41.6L23.37 43.92L25.45 44.65C25.3655 45.3178 25.4028 45.9955 25.56 46.65L23.56 47.65L23.58 47.6ZM32.19 42.29C32.7869 42.4969 33.3093 42.8759 33.6912 43.3793C34.073 43.8826 34.2974 44.4877 34.3359 45.1183C34.3745 45.7489 34.2255 46.3768 33.9077 46.9229C33.59 47.469 33.1177 47.9088 32.5504 48.1868C31.9831 48.4649 31.3462 48.5689 30.7199 48.4855C30.0936 48.4022 29.506 48.1354 29.0312 47.7187C28.5563 47.3019 28.2154 46.754 28.0515 46.1438C27.8876 45.5336 27.9079 44.8886 28.11 44.29C28.3874 43.4849 28.9724 42.8224 29.7371 42.4476C30.5017 42.0728 31.3837 42.0161 32.19 42.29Z" fill="#FF8080"/>
<path d="M40.19 48.73L41.03 50.47L42.59 49.72C42.9148 50.1392 43.3108 50.498 43.76 50.78L43.2 52.4L45 53L45.57 51.37C46.0976 51.4397 46.6337 51.4091 47.15 51.28L47.9 52.84L49.64 52L48.89 50.44C49.2933 50.1118 49.6324 49.7117 49.89 49.26L51.52 49.83L52.16 48.01L50.53 47.44C50.5999 46.9124 50.5694 46.3763 50.44 45.86L52 45.11L51.16 43.37L49.6 44.12C49.274 43.6982 48.8742 43.3391 48.42 43.06L48.99 41.44L47.17 40.8L46.6 42.43C46.0724 42.3601 45.5363 42.3906 45.02 42.52L44.34 41L42.6 41.84L43.35 43.4C42.9283 43.726 42.5691 44.1258 42.29 44.58L40.67 44L40 45.83L41.63 46.4C41.5601 46.9276 41.5906 47.4637 41.72 47.98L40.16 48.73H40.19ZM48 46.05C48.1683 46.4177 48.2242 46.8269 48.1605 47.2263C48.0968 47.6256 47.9164 47.9972 47.642 48.2943C47.3677 48.5913 47.0116 48.8006 46.6185 48.8958C46.2255 48.9909 45.8131 48.9678 45.4332 48.8291C45.0534 48.6905 44.723 48.4426 44.4836 48.1166C44.2443 47.7907 44.1067 47.4012 44.0882 46.9972C44.0697 46.5933 44.1711 46.1929 44.3796 45.8464C44.5881 45.4999 44.8944 45.2228 45.26 45.05C45.5055 44.9354 45.7712 44.8704 46.0419 44.8586C46.3126 44.8469 46.5829 44.8887 46.8375 44.9815C47.092 45.0744 47.3257 45.2166 47.5252 45.4C47.7246 45.5833 47.886 45.8042 48 46.05Z" fill="#FF8080"/>
<path d="M34.55 36.13L36.78 35.06C37.2206 35.5624 37.7209 36.009 38.27 36.39L37.45 38.72C37.4051 38.8473 37.4125 38.9872 37.4706 39.1091C37.5287 39.2309 37.6328 39.3248 37.76 39.37L40.76 40.43C40.8229 40.4536 40.89 40.4643 40.9571 40.4614C41.0243 40.4585 41.0902 40.4421 41.1509 40.4132C41.2115 40.3843 41.2658 40.3434 41.3103 40.293C41.3548 40.2426 41.3887 40.1838 41.41 40.12L42.22 37.79C42.889 37.8301 43.5605 37.7899 44.22 37.67L45.29 39.9C45.3503 40.0202 45.4548 40.1123 45.5816 40.157C45.7084 40.2018 45.8476 40.1957 45.97 40.14L48.87 38.74C48.9919 38.6816 49.0857 38.5772 49.1307 38.4497C49.1758 38.3222 49.1683 38.182 49.11 38.06L48.04 35.83C48.5423 35.3894 48.989 34.889 49.37 34.34L51.7 35.15C51.7629 35.1736 51.83 35.1843 51.8971 35.1814C51.9643 35.1785 52.0302 35.1621 52.0909 35.1332C52.1515 35.1043 52.2058 35.0634 52.2503 35.013C52.2948 34.9626 52.3287 34.9038 52.35 34.84L53.41 31.84C53.4373 31.7786 53.4513 31.7122 53.4513 31.645C53.4513 31.5778 53.4373 31.5114 53.41 31.45C53.3815 31.3895 53.3411 31.3353 53.2913 31.2906C53.2415 31.246 53.1832 31.2117 53.12 31.19L50.79 30.37C50.8306 29.7009 50.7903 29.0294 50.67 28.37L52.9 27.3C53.0201 27.2397 53.1122 27.1352 53.157 27.0084C53.2017 26.8816 53.1956 26.7424 53.14 26.62L51.74 23.71C51.6796 23.5899 51.5751 23.4977 51.4483 23.453C51.3215 23.4082 51.1823 23.4143 51.06 23.47L48.83 24.55C48.392 24.045 47.8913 23.598 47.34 23.22L48.16 20.88C48.2016 20.7513 48.1915 20.6115 48.1318 20.4901C48.072 20.3688 47.9674 20.2755 47.84 20.23L44.84 19.17C44.7763 19.148 44.7089 19.1389 44.6417 19.1431C44.5744 19.1473 44.5087 19.1648 44.4483 19.1945C44.3878 19.2243 44.3339 19.2657 44.2895 19.3164C44.2452 19.3671 44.2114 19.4261 44.19 19.49L43.38 21.82C42.7113 21.7716 42.0392 21.8085 41.38 21.93L40.3 19.68C40.2416 19.558 40.1372 19.4642 40.0096 19.4192C39.8821 19.3742 39.742 19.3817 39.62 19.44L36.71 20.84C36.6495 20.8688 36.5954 20.9094 36.551 20.9594C36.5065 21.0095 36.4725 21.0679 36.4511 21.1313C36.4296 21.1948 36.4211 21.2618 36.4261 21.3286C36.431 21.3954 36.4494 21.4605 36.48 21.52L37.55 23.75C37.0426 24.1856 36.5953 24.6866 36.22 25.24L33.89 24.42C33.7626 24.3751 33.6227 24.3826 33.5009 24.4407C33.3791 24.4988 33.2852 24.6028 33.24 24.73L32.17 27.73C32.1283 27.8587 32.1384 27.9986 32.1981 28.1199C32.2579 28.2413 32.3625 28.3346 32.49 28.38L34.82 29.19C34.7715 29.8586 34.8085 30.5307 34.93 31.19L32.71 32.26C32.588 32.3184 32.4942 32.4228 32.4492 32.5503C32.4042 32.6778 32.4116 32.818 32.47 32.94L33.87 35.84C33.8941 35.9048 33.9312 35.964 33.979 36.014C34.0267 36.064 34.0841 36.1038 34.1477 36.1309C34.2113 36.158 34.2798 36.1719 34.3489 36.1718C34.4181 36.1716 34.4865 36.1574 34.55 36.13ZM33.61 33L35.74 32C35.8467 31.9463 35.9312 31.8568 35.9788 31.7472C36.0263 31.6375 36.0338 31.5146 36 31.4C35.8186 30.6135 35.7746 29.8015 35.87 29C35.8832 28.8848 35.8567 28.7684 35.7948 28.6703C35.733 28.5721 35.6396 28.4979 35.53 28.46L33.3 27.68L34 25.55L36.23 26.33C36.3388 26.37 36.4582 26.3709 36.5676 26.3326C36.6771 26.2943 36.7698 26.2192 36.83 26.12C37.2644 25.4181 37.8197 24.7985 38.47 24.29C38.5624 24.2172 38.6268 24.1148 38.6523 24C38.6778 23.8852 38.6628 23.7651 38.61 23.66L37.61 21.54L39.61 20.54L40.61 22.67C40.6595 22.7736 40.7432 22.8571 40.847 22.9062C40.9508 22.9554 41.0684 22.9673 41.18 22.94C41.982 22.7494 42.8114 22.7021 43.63 22.8C43.7468 22.8156 43.8654 22.7903 43.9657 22.7283C44.066 22.6663 44.1417 22.5715 44.18 22.46L45 20.27L47.07 21L46.3 23.23C46.26 23.3389 46.259 23.4582 46.2973 23.5677C46.3356 23.6771 46.4108 23.7699 46.51 23.83C47.2099 24.2671 47.829 24.822 48.34 25.47C48.411 25.5616 48.5117 25.6257 48.6248 25.6512C48.7379 25.6767 48.8564 25.6622 48.96 25.61L51.09 24.61L52.09 26.61L49.96 27.61C49.855 27.658 49.7704 27.7415 49.7211 27.8458C49.6717 27.9501 49.6607 28.0684 49.69 28.18C49.8772 28.9827 49.9212 29.8121 49.82 30.63C49.8097 30.7461 49.8373 30.8624 49.8985 30.9615C49.9598 31.0607 50.0515 31.1373 50.16 31.18L52.39 31.95L51.61 34L49.38 33.22C49.2683 33.184 49.1478 33.186 49.0374 33.2258C48.927 33.2656 48.8329 33.341 48.77 33.44C48.3395 34.1419 47.7875 34.7615 47.14 35.27C47.0482 35.3409 46.9833 35.441 46.9561 35.5537C46.9288 35.6664 46.9407 35.785 46.99 35.89L48 38L46 39L45 36.87C44.9502 36.7638 44.8654 36.6779 44.7597 36.6269C44.6541 36.5759 44.5341 36.5628 44.42 36.59C43.6188 36.7864 42.7883 36.8339 41.97 36.73C41.855 36.7186 41.7395 36.7459 41.6417 36.8074C41.5439 36.869 41.4694 36.9614 41.43 37.07L40.65 39.3L38.57 38.58L39.35 36.35C39.3887 36.2395 39.3891 36.1192 39.351 36.0085C39.3129 35.8978 39.2385 35.8032 39.14 35.74C38.4361 35.3122 37.816 34.7598 37.31 34.11C37.2374 34.0174 37.1356 33.9522 37.0212 33.925C36.9067 33.8977 36.7865 33.9101 36.68 33.96L34.56 34.96L33.56 32.96L33.61 33Z" fill="#000670"/>
<path d="M43.43 34.45C43.4968 34.4426 43.5615 34.4219 43.6201 34.389C43.6787 34.3561 43.7301 34.3117 43.7711 34.2585C43.8122 34.2053 43.8421 34.1444 43.8591 34.0793C43.8761 34.0143 43.8798 33.9465 43.87 33.88C43.8525 33.7461 43.7828 33.6247 43.6759 33.5422C43.5691 33.4597 43.4339 33.423 43.3 33.44C42.6551 33.5216 42.0002 33.4314 41.4014 33.1785C40.8026 32.9256 40.2812 32.5191 39.89 32C39.8203 31.9067 39.7202 31.8407 39.607 31.8133C39.4938 31.7859 39.3746 31.7989 39.27 31.85L39.18 31.9C39.1257 31.9404 39.08 31.9911 39.0455 32.0493C39.0111 32.1076 38.9885 32.172 38.9792 32.2391C38.9699 32.3061 38.974 32.3742 38.9913 32.4396C39.0086 32.5051 39.0388 32.5664 39.08 32.62C39.5807 33.2799 40.2463 33.7964 41.0099 34.1177C41.7734 34.4389 42.6081 34.5535 43.43 34.45Z" fill="#000670"/>
<path d="M38.68 30.68C38.8163 30.6673 38.942 30.6014 39.03 30.4965C39.118 30.3917 39.1611 30.2564 39.15 30.12C39.0888 29.485 39.1933 28.845 39.4533 28.2625C39.7133 27.6799 40.1198 27.1747 40.6333 26.7962C41.1467 26.4176 41.7496 26.1786 42.3829 26.1025C43.0163 26.0265 43.6586 26.1159 44.2471 26.3621C44.8356 26.6083 45.3502 27.0028 45.7407 27.5072C46.1312 28.0116 46.3843 28.6087 46.4753 29.2401C46.5663 29.8715 46.492 30.5157 46.2597 31.1098C46.0274 31.7039 45.6451 32.2277 45.15 32.63C45.0493 32.7171 44.9867 32.8401 44.9754 32.9728C44.9642 33.1054 45.0053 33.2372 45.09 33.34C45.1317 33.3917 45.1832 33.4346 45.2417 33.4662C45.3001 33.4978 45.3642 33.5174 45.4303 33.5239C45.4964 33.5304 45.5631 33.5237 45.6266 33.5041C45.6901 33.4846 45.749 33.4526 45.8 33.41C46.426 32.8926 46.9075 32.2221 47.1979 31.4637C47.4883 30.7053 47.5777 29.8847 47.4573 29.0815C47.337 28.2784 47.011 27.52 46.5111 26.88C46.0111 26.24 45.3542 25.7402 44.6041 25.429C43.8539 25.1178 43.0361 25.0059 42.2299 25.1041C41.4238 25.2023 40.6567 25.5072 40.0032 25.9893C39.3496 26.4715 38.8319 27.1144 38.5002 27.8557C38.1685 28.597 38.0341 29.4114 38.11 30.22C38.1162 30.288 38.136 30.3541 38.1682 30.4144C38.2004 30.4746 38.2444 30.5278 38.2976 30.5707C38.3508 30.6136 38.412 30.6453 38.4777 30.6641C38.5434 30.6829 38.6122 30.6883 38.68 30.68Z" fill="#000670"/>
<path d="M25.61 50.54L27.23 49.76C27.53 50.101 27.8652 50.4094 28.23 50.68L27.64 52.37C27.6127 52.4314 27.5986 52.4978 27.5986 52.565C27.5986 52.6322 27.6127 52.6986 27.64 52.76C27.6764 52.8259 27.7281 52.8821 27.7907 52.9239C27.8534 52.9657 27.9251 52.9918 28 53L30.32 53.82C30.3836 53.842 30.451 53.8511 30.5183 53.8469C30.5855 53.8427 30.6512 53.8252 30.7117 53.7955C30.7721 53.7657 30.826 53.7243 30.8704 53.6736C30.9147 53.6229 30.9486 53.5639 30.97 53.5L31.57 51.8C32.0278 51.8266 32.4872 51.8031 32.94 51.73L33.72 53.35C33.7487 53.4105 33.7893 53.4645 33.8394 53.509C33.8894 53.5535 33.9479 53.5874 34.0113 53.6089C34.0747 53.6303 34.1418 53.6388 34.2086 53.6339C34.2753 53.6289 34.3404 53.6106 34.4 53.58L36.62 52.51C36.742 52.4516 36.8358 52.3472 36.8808 52.2197C36.9258 52.0922 36.9183 51.952 36.86 51.83L36.07 50.21C36.4139 49.913 36.7226 49.5774 36.99 49.21L38.69 49.8C38.8174 49.8422 38.9562 49.8335 39.0773 49.7757C39.1985 49.718 39.2926 49.6156 39.34 49.49L40.15 47.16C40.1995 47.0347 40.1995 46.8953 40.15 46.77C40.0868 46.652 39.9842 46.5599 39.86 46.51L38.16 45.92C38.1572 45.4588 38.1035 44.9994 38 44.55L39.62 43.77C39.7401 43.7097 39.8322 43.6051 39.877 43.4784C39.9217 43.3516 39.9156 43.2124 39.86 43.09L38.79 40.87C38.7296 40.7499 38.6251 40.6577 38.4983 40.613C38.3715 40.5682 38.2324 40.5743 38.11 40.63L36.49 41.41C36.1924 41.0696 35.8569 40.7643 35.49 40.5L36.09 38.8C36.112 38.7363 36.1211 38.6689 36.1169 38.6017C36.1127 38.5345 36.0952 38.4687 36.0655 38.4083C36.0357 38.3479 35.9943 38.2939 35.9436 38.2496C35.8928 38.2053 35.8338 38.1714 35.77 38.15L33.45 37.34C33.3886 37.3127 33.3222 37.2986 33.255 37.2986C33.1878 37.2986 33.1214 37.3127 33.06 37.34C32.9994 37.3685 32.9452 37.4088 32.9006 37.4586C32.8559 37.5085 32.8217 37.5667 32.8 37.63L32.2 39.33C31.7417 39.3021 31.2818 39.3289 30.83 39.41L30.05 37.79C29.9916 37.668 29.8872 37.5742 29.7597 37.5292C29.6321 37.4842 29.492 37.4917 29.37 37.55L27.15 38.62C27.0895 38.6488 27.0354 38.6894 26.991 38.7394C26.9465 38.7895 26.9125 38.8479 26.8911 38.9113C26.8696 38.9748 26.8611 39.0418 26.8661 39.1086C26.8711 39.1754 26.8894 39.2405 26.92 39.3L27.7 40.92C27.3564 41.2174 27.0478 41.5529 26.78 41.92L25.08 41.32C24.9537 41.2758 24.8162 41.2758 24.69 41.32C24.569 41.3842 24.4763 41.4911 24.43 41.62L23.63 44C23.608 44.0637 23.5988 44.1311 23.603 44.1983C23.6073 44.2655 23.6247 44.3313 23.6545 44.3917C23.6842 44.4521 23.7257 44.5061 23.7764 44.5504C23.8271 44.5947 23.8861 44.6286 23.95 44.65L25.64 45.24C25.6164 45.6982 25.6433 46.1576 25.72 46.61L24.1 47.4C23.978 47.4584 23.8842 47.5628 23.8392 47.6903C23.7942 47.8178 23.8017 47.958 23.86 48.08L24.93 50.29C24.958 50.3513 24.9978 50.4064 25.0472 50.4522C25.0967 50.498 25.1546 50.5335 25.2179 50.5567C25.2811 50.58 25.3483 50.5905 25.4156 50.5876C25.4829 50.5847 25.549 50.5686 25.61 50.54ZM25 48.1L26.52 47.37C26.6262 47.3203 26.7121 47.2355 26.7631 47.1298C26.8141 47.0241 26.8271 46.9041 26.8 46.79C26.6583 46.2045 26.621 45.5985 26.69 45C26.7032 44.8847 26.6767 44.7684 26.6149 44.6703C26.5531 44.5721 26.4596 44.4979 26.35 44.46L24.76 43.91L25.24 42.54L26.83 43.1C26.9399 43.1391 27.0601 43.1386 27.1697 43.0984C27.2793 43.0582 27.3714 42.9809 27.43 42.88C27.7574 42.3614 28.1698 41.9016 28.65 41.52C28.7425 41.4474 28.8078 41.3456 28.835 41.2312C28.8623 41.1168 28.8499 40.9965 28.8 40.89L28.07 39.38L29.36 38.75L30.1 40.27C30.1495 40.3736 30.2332 40.457 30.337 40.5062C30.4408 40.5554 30.5584 40.5673 30.67 40.54C31.2691 40.3973 31.8889 40.3634 32.5 40.44C32.6168 40.4556 32.7355 40.4303 32.8357 40.3683C32.936 40.3063 33.0117 40.2115 33.05 40.1L33.6 38.51L35 39L34.45 40.59C34.4119 40.699 34.4119 40.8177 34.4501 40.9267C34.4882 41.0357 34.5622 41.1285 34.66 41.19C35.173 41.4968 35.6268 41.893 36 42.36C36.0711 42.4516 36.1718 42.5157 36.2849 42.5412C36.398 42.5667 36.5164 42.5522 36.62 42.5L38.14 41.77L38.77 43.07L37.25 43.8C37.1455 43.8514 37.0618 43.9369 37.0127 44.0424C36.9636 44.1479 36.9521 44.267 36.98 44.38C37.1179 44.9798 37.1518 45.5988 37.08 46.21C37.0649 46.3255 37.0906 46.4427 37.1526 46.5413C37.2147 46.6399 37.3093 46.7137 37.42 46.75L39.01 47.31L38.53 48.67L36.94 48.12C36.831 48.0819 36.7122 48.0819 36.6033 48.1201C36.4943 48.1582 36.4014 48.2322 36.34 48.33C36.0184 48.8559 35.6052 49.3199 35.12 49.7C35.0282 49.7709 34.9633 49.871 34.9361 49.9837C34.9088 50.0964 34.9208 50.215 34.97 50.32L35.71 51.84L34.41 52.46L33.66 51C33.6121 50.8945 33.5291 50.809 33.4251 50.7579C33.3212 50.7068 33.2027 50.6934 33.09 50.72C32.4908 50.8613 31.8718 50.8985 31.26 50.83C31.1446 50.8156 31.0277 50.8403 30.928 50.9001C30.8283 50.9599 30.7516 51.0514 30.71 51.16L30.16 52.75L28.8 52.28L29.35 50.69C29.39 50.5812 29.3909 50.4618 29.3526 50.3523C29.3143 50.2429 29.2391 50.1501 29.14 50.09C28.6164 49.7654 28.1528 49.3527 27.77 48.87C27.6991 48.7782 27.599 48.7134 27.4863 48.6861C27.3736 48.6588 27.255 48.6708 27.15 48.72L25.63 49.45L25 48.1Z" fill="#000670"/>
<path d="M28.72 46.35C28.7871 46.3449 28.8524 46.3267 28.9124 46.2963C28.9724 46.2659 29.0257 46.2239 29.0694 46.1728C29.1131 46.1216 29.1462 46.0624 29.1669 45.9984C29.1876 45.9344 29.1955 45.867 29.19 45.8C29.1479 45.3495 29.2196 44.8955 29.3987 44.48C29.5778 44.0644 29.8584 43.7005 30.2149 43.4217C30.5713 43.1429 30.9921 42.9582 31.4386 42.8845C31.8851 42.8108 32.3429 42.8505 32.77 43C33.1053 43.1166 33.4141 43.2986 33.6785 43.5355C33.9428 43.7724 34.1575 44.0594 34.31 44.38C34.5544 44.8606 34.6488 45.4035 34.5808 45.9384C34.5129 46.4732 34.2858 46.9753 33.929 47.3795C33.5722 47.7837 33.1022 48.0714 32.5799 48.2052C32.0576 48.3391 31.5072 48.3128 31 48.13C30.6467 48.009 30.323 47.8148 30.05 47.56C30.0014 47.5114 29.9434 47.4731 29.8796 47.4474C29.8158 47.4218 29.7475 47.4093 29.6788 47.4107C29.61 47.4122 29.5423 47.4275 29.4796 47.4558C29.4169 47.4841 29.3606 47.5247 29.3141 47.5753C29.2675 47.6259 29.2317 47.6854 29.2087 47.7502C29.1857 47.815 29.1761 47.8838 29.1804 47.9525C29.1847 48.0211 29.2028 48.0881 29.2337 48.1496C29.2645 48.211 29.3075 48.2656 29.36 48.31C29.9495 48.8447 30.6954 49.1756 31.4874 49.2539C32.2794 49.3322 33.0756 49.1537 33.7585 48.7448C34.4413 48.3359 34.9745 47.7183 35.2794 46.9831C35.5843 46.2479 35.6447 45.4342 35.4516 44.6621C35.2586 43.89 34.8224 43.2004 34.2074 42.6952C33.5924 42.19 32.8313 41.8959 32.0364 41.8565C31.2415 41.817 30.4549 42.0342 29.7929 42.476C29.1309 42.9178 28.6286 43.5608 28.36 44.31C28.1871 44.7969 28.1223 45.3155 28.17 45.83C28.1668 45.9017 28.179 45.9733 28.2059 46.0399C28.2329 46.1065 28.2738 46.1665 28.326 46.2159C28.3782 46.2652 28.4404 46.3027 28.5084 46.3259C28.5764 46.349 28.6485 46.3573 28.72 46.35Z" fill="#000670"/>
<path d="M51.77 43.21L50.57 43.79C50.355 43.5598 50.1171 43.352 49.86 43.17L50.3 41.91C50.3273 41.8486 50.3414 41.7822 50.3414 41.715C50.3414 41.6478 50.3273 41.5814 50.3 41.52C50.2715 41.4595 50.2311 41.4053 50.1813 41.3606C50.1315 41.3159 50.0732 41.2817 50.01 41.26L48.18 40.62C48.0547 40.5704 47.9152 40.5704 47.79 40.62C47.6719 40.6831 47.5799 40.7858 47.53 40.91L47.09 42.17C46.7754 42.1604 46.4607 42.1805 46.15 42.23L45.57 41.03C45.5421 40.9687 45.5022 40.9136 45.4526 40.8681C45.4029 40.8226 45.3446 40.7876 45.2811 40.7652C45.2176 40.7428 45.1502 40.7334 45.083 40.7377C45.0158 40.7419 44.9501 40.7597 44.89 40.79L43.15 41.63C43.0298 41.6903 42.9377 41.7949 42.8929 41.9216C42.8482 42.0484 42.8543 42.1876 42.91 42.31L43.49 43.51C43.2594 43.724 43.0485 43.9582 42.86 44.21L41.61 43.77C41.4839 43.725 41.3461 43.725 41.22 43.77C41.1577 43.7986 41.1023 43.8401 41.0575 43.8919C41.0127 43.9436 40.9794 44.0043 40.96 44.07L40.32 45.89C40.2927 45.9514 40.2786 46.0178 40.2786 46.085C40.2786 46.1522 40.2927 46.2186 40.32 46.28C40.3484 46.3405 40.3888 46.3947 40.4386 46.4394C40.4884 46.4841 40.5467 46.5183 40.61 46.54L41.87 46.98C41.8448 47.2928 41.8448 47.6072 41.87 47.92L40.67 48.5C40.5498 48.5603 40.4577 48.6649 40.4129 48.7916C40.3682 48.9184 40.3743 49.0576 40.43 49.18L41.28 50.93C41.3087 50.9905 41.3493 51.0445 41.3994 51.089C41.4494 51.1335 41.5079 51.1674 41.5713 51.1889C41.6347 51.2103 41.7018 51.2188 41.7686 51.2139C41.8353 51.2089 41.9004 51.1906 41.96 51.16L43.16 50.58C43.3739 50.8106 43.6082 51.0214 43.86 51.21L43.42 52.47C43.3927 52.5314 43.3786 52.5978 43.3786 52.665C43.3786 52.7322 43.3927 52.7986 43.42 52.86C43.4801 52.9803 43.5838 53.0733 43.71 53.12L45.54 53.76C45.6652 53.8096 45.8047 53.8096 45.93 53.76C45.9915 53.7331 46.0466 53.6932 46.0914 53.6432C46.1363 53.5932 46.1699 53.5341 46.19 53.47L46.63 52.22C46.9445 52.2296 47.2592 52.2095 47.57 52.16L48.15 53.36C48.1778 53.4213 48.2177 53.4764 48.2674 53.5219C48.317 53.5674 48.3753 53.6024 48.4388 53.6248C48.5023 53.6472 48.5697 53.6566 48.6369 53.6523C48.7041 53.6481 48.7698 53.6303 48.83 53.6L50.57 52.76C50.6919 52.7016 50.7858 52.5972 50.8308 52.4697C50.8758 52.3422 50.8683 52.202 50.81 52.08L50.23 50.88C50.458 50.6635 50.6686 50.4295 50.86 50.18L52.12 50.62C52.2486 50.6617 52.3885 50.6516 52.5099 50.5918C52.6312 50.5321 52.7245 50.4274 52.77 50.3L53.4 48.47C53.4267 48.4085 53.4404 48.3421 53.4404 48.275C53.4404 48.2079 53.4267 48.1415 53.4 48.08C53.3398 47.9597 53.2361 47.8667 53.11 47.82L51.85 47.39C51.8635 47.0758 51.8468 46.761 51.8 46.45L53 45.87C53.1201 45.8097 53.2122 45.7051 53.257 45.5784C53.3017 45.4516 53.2956 45.3124 53.24 45.19L52.4 43.44C52.339 43.3335 52.2423 43.252 52.127 43.2099C52.0117 43.1678 51.8852 43.1678 51.77 43.21ZM52.15 45.21L51.05 45.74C50.9455 45.7914 50.8618 45.8769 50.8127 45.9824C50.7636 46.0879 50.752 46.207 50.78 46.32C50.8864 46.7787 50.9135 47.2522 50.86 47.72C50.8468 47.8353 50.8733 47.9516 50.9351 48.0497C50.9969 48.1479 51.0903 48.2221 51.2 48.26L52.34 48.66L52.04 49.52L50.89 49.12C50.7799 49.0828 50.6603 49.0844 50.5512 49.1244C50.4421 49.1644 50.3499 49.2404 50.29 49.34C50.0396 49.7242 49.725 50.0624 49.36 50.34C49.2674 50.4126 49.2022 50.5144 49.1749 50.6288C49.1477 50.7432 49.16 50.8635 49.21 50.97L49.74 52.06L48.91 52.46L48.39 51.36C48.3372 51.2568 48.2515 51.1742 48.1464 51.1252C48.0413 51.0763 47.9229 51.0639 47.81 51.09C47.352 51.2015 46.8776 51.2286 46.41 51.17C46.2944 51.1549 46.1773 51.1806 46.0787 51.2427C45.9801 51.3047 45.9063 51.3993 45.87 51.51L45.47 52.66L44.6 52.35L45 51.21C45.0387 51.0995 45.0391 50.9792 45.001 50.8685C44.9629 50.7578 44.8885 50.6632 44.79 50.6C44.3844 50.359 44.0282 50.0434 43.74 49.67C43.6691 49.5782 43.569 49.5134 43.4563 49.4861C43.3436 49.4588 43.225 49.4708 43.12 49.52L42.02 50.05L41.62 49.23L42.72 48.7C42.8257 48.6501 42.9105 48.5648 42.9599 48.4588C43.0092 48.3529 43.0198 48.233 42.99 48.12C42.8835 47.6613 42.8564 47.1878 42.91 46.72C42.9238 46.606 42.8987 46.4906 42.8389 46.3926C42.779 46.2946 42.6877 46.2197 42.58 46.18L41.43 45.78L41.73 44.91L42.88 45.31C42.9888 45.35 43.1082 45.3509 43.2176 45.3126C43.3271 45.2743 43.4198 45.1991 43.48 45.1C43.7321 44.714 44.0503 44.3755 44.42 44.1C44.5086 44.0267 44.5704 43.9261 44.5957 43.8139C44.6211 43.7017 44.6085 43.5843 44.56 43.48L44 42.35L44.83 41.95L45.39 43C45.4378 43.1055 45.5208 43.191 45.6248 43.2421C45.7288 43.2932 45.8472 43.3066 45.96 43.28C46.4179 43.1685 46.8923 43.1414 47.36 43.2C47.4768 43.2156 47.5955 43.1903 47.6957 43.1283C47.796 43.0663 47.8717 42.9715 47.91 42.86L48.31 41.71L49.17 42.01L48.77 43.16C48.7308 43.27 48.7314 43.3901 48.7716 43.4997C48.8118 43.6093 48.889 43.7014 48.99 43.76C49.3743 44.0142 49.7125 44.3321 49.99 44.7C50.061 44.7916 50.1618 44.8557 50.2749 44.8812C50.388 44.9067 50.5064 44.8922 50.61 44.84L51.71 44.31L52.15 45.21Z" fill="#000670"/>
<path d="M45.77 44.9C45.312 45.1205 44.9297 45.4719 44.6714 45.9097C44.413 46.3475 44.2904 46.8521 44.3189 47.3597C44.3473 47.8672 44.5257 48.3549 44.8314 48.7611C45.137 49.1672 45.5563 49.4736 46.0361 49.6415C46.516 49.8093 47.0348 49.8311 47.527 49.7041C48.0192 49.5771 48.4627 49.307 48.8014 48.9279C49.14 48.5488 49.3587 48.0778 49.4297 47.5744C49.5006 47.0711 49.4207 46.558 49.2 46.1C49.0546 45.7951 48.8503 45.5221 48.5988 45.2965C48.3473 45.071 48.0537 44.8974 47.7349 44.7859C47.416 44.6743 47.0783 44.627 46.7411 44.6466C46.4038 44.6662 46.0738 44.7523 45.77 44.9ZM47.56 48.6C47.2856 48.7316 46.9784 48.779 46.6771 48.7361C46.3758 48.6932 46.094 48.562 45.8672 48.3591C45.6404 48.1561 45.4788 47.8906 45.4029 47.5959C45.3269 47.3012 45.3399 46.9906 45.4404 46.7033C45.5408 46.416 45.724 46.1649 45.967 45.9817C46.21 45.7985 46.5019 45.6915 46.8057 45.674C47.1095 45.6565 47.4117 45.7294 47.6741 45.8836C47.9365 46.0377 48.1474 46.2661 48.28 46.54C48.3684 46.7225 48.4199 46.9206 48.4316 47.123C48.4432 47.3254 48.4148 47.5282 48.3479 47.7195C48.281 47.9109 48.1769 48.0872 48.0418 48.2383C47.9066 48.3894 47.7429 48.5123 47.56 48.6Z" fill="#000670"/>
</svg>
