<svg width="31" height="31" viewBox="0 0 31 31" fill="none" xmlns="http://www.w3.org/2000/svg">
<path d="M20.1197 8.2475H10.8803C9.40551 8.2475 8.20569 9.44732 8.20569 10.9221V20.1615C8.20569 21.6362 9.40551 22.8364 10.8803 22.8364H20.1197C21.5944 22.8364 22.7946 21.6366 22.7946 20.1615V10.9221C22.7946 9.44732 21.5948 8.2475 20.1197 8.2475ZM15.5 20.3445C12.852 20.3445 10.6976 18.1901 10.6976 15.5418C10.6976 12.8938 12.852 10.7394 15.5 10.7394C18.1483 10.7394 20.3027 12.8938 20.3027 15.5418C20.3027 18.1898 18.1479 20.3445 15.5 20.3445ZM20.4571 11.7323C19.8303 11.7323 19.3205 11.2225 19.3205 10.596C19.3205 9.96953 19.8303 9.45976 20.4571 9.45976C21.0836 9.45976 21.5934 9.96953 21.5934 10.596C21.5934 11.2225 21.0836 11.7323 20.4571 11.7323Z" fill="black"/>
<path d="M15.5 12.7688C13.9714 12.7688 12.7267 14.0128 12.7267 15.5415C12.7267 17.0708 13.9714 18.3151 15.5 18.3151C17.0293 18.3151 18.273 17.0708 18.273 15.5415C18.273 14.0132 17.029 12.7688 15.5 12.7688Z" fill="black"/>
<path d="M15.5 0C6.93993 0 0 6.93993 0 15.5C0 24.0601 6.93993 31 15.5 31C24.0601 31 31 24.0601 31 15.5C31 6.93993 24.0601 0 15.5 0ZM24.8237 20.1615C24.8237 22.7556 22.7138 24.8655 20.1197 24.8655H10.8803C8.28654 24.8655 6.17631 22.7556 6.17631 20.1615V10.9221C6.17631 8.32833 8.28654 6.2181 10.8803 6.2181H20.1197C22.7138 6.2181 24.8237 8.32833 24.8237 10.9221V20.1615Z" fill="black"/>
</svg>
