<svg width="37" height="39" viewBox="0 0 37 39" fill="none" xmlns="http://www.w3.org/2000/svg">
<path d="M29.4446 12.7606C32.5865 12.7606 35.1335 10.3406 35.1335 7.35535C35.1335 4.37013 32.5865 1.95013 29.4446 1.95013C26.3027 1.95013 23.7556 4.37013 23.7556 7.35535C23.7556 10.3406 26.3027 12.7606 29.4446 12.7606Z" stroke="black" stroke-width="2" stroke-linecap="square"/>
<path d="M6.68892 25.3727C9.83082 25.3727 12.3778 22.9527 12.3778 19.9675C12.3778 16.9823 9.83082 14.5623 6.68892 14.5623C3.54702 14.5623 1 16.9823 1 19.9675C1 22.9527 3.54702 25.3727 6.68892 25.3727Z" stroke="black" stroke-width="2" stroke-linecap="square"/>
<path d="M29.4445 37.9849C32.5864 37.9849 35.1335 35.565 35.1335 32.5797C35.1335 29.5945 32.5864 27.1746 29.4445 27.1746C26.3026 27.1746 23.7556 29.5945 23.7556 32.5797C23.7556 35.565 26.3026 37.9849 29.4445 37.9849Z" stroke="black" stroke-width="2" stroke-linecap="square"/>
<path d="M11.6003 22.6882L24.5521 29.8591" stroke="black" stroke-width="2" stroke-linecap="square"/>
<path d="M24.5331 10.076L11.6003 17.2469" stroke="black" stroke-width="2" stroke-linecap="square"/>
</svg>
